# meshify fixture
mtllib two-material.mtl
o part_red_plastic
usemtl red_plastic
v -1.3000 -0.5000 0.5000
v -0.3000 -0.5000 0.5000
v -0.3000 0.5000 0.5000
v -1.3000 0.5000 0.5000
v -0.3000 -0.5000 -0.5000
v -1.3000 -0.5000 -0.5000
v -1.3000 0.5000 -0.5000
v -0.3000 0.5000 -0.5000
v -0.3000 -0.5000 0.5000
v -0.3000 -0.5000 -0.5000
v -0.3000 0.5000 -0.5000
v -0.3000 0.5000 0.5000
v -1.3000 -0.5000 -0.5000
v -1.3000 -0.5000 0.5000
v -1.3000 0.5000 0.5000
v -1.3000 0.5000 -0.5000
v -1.3000 0.5000 0.5000
v -0.3000 0.5000 0.5000
v -0.3000 0.5000 -0.5000
v -1.3000 0.5000 -0.5000
v -1.3000 -0.5000 -0.5000
v -0.3000 -0.5000 -0.5000
v -0.3000 -0.5000 0.5000
v -1.3000 -0.5000 0.5000
f 1 2 3 4
f 5 6 7 8
f 9 10 11 12
f 13 14 15 16
f 17 18 19 20
f 21 22 23 24
o part_blue_plastic
usemtl blue_plastic
v 0.3000 -0.5000 0.5000
v 1.3000 -0.5000 0.5000
v 1.3000 0.5000 0.5000
v 0.3000 0.5000 0.5000
v 1.3000 -0.5000 -0.5000
v 0.3000 -0.5000 -0.5000
v 0.3000 0.5000 -0.5000
v 1.3000 0.5000 -0.5000
v 1.3000 -0.5000 0.5000
v 1.3000 -0.5000 -0.5000
v 1.3000 0.5000 -0.5000
v 1.3000 0.5000 0.5000
v 0.3000 -0.5000 -0.5000
v 0.3000 -0.5000 0.5000
v 0.3000 0.5000 0.5000
v 0.3000 0.5000 -0.5000
v 0.3000 0.5000 0.5000
v 1.3000 0.5000 0.5000
v 1.3000 0.5000 -0.5000
v 0.3000 0.5000 -0.5000
v 0.3000 -0.5000 -0.5000
v 1.3000 -0.5000 -0.5000
v 1.3000 -0.5000 0.5000
v 0.3000 -0.5000 0.5000
f 25 26 27 28
f 29 30 31 32
f 33 34 35 36
f 37 38 39 40
f 41 42 43 44
f 45 46 47 48
