# created by meshify
mtllib model.mtl
o boxA
g boxA
usemtl red
v -1 -1 1
v 1 -1 1
v 1 1 1
v -1 1 1
v 1 -1 -1
v -1 -1 -1
v -1 1 -1
v 1 1 -1
v -1 1 1
v 1 1 1
v 1 1 -1
v -1 1 -1
v -1 -1 -1
v 1 -1 -1
v 1 -1 1
v -1 -1 1
v 1 -1 1
v 1 -1 -1
v 1 1 -1
v 1 1 1
v -1 -1 -1
v -1 -1 1
v -1 1 1
v -1 1 -1
vt 1 1
vt 0 1
vt 0 0
vt 1 0
vt 1 1
vt 0 1
vt 0 0
vt 1 0
vt 0 1
vt 1 1
vt 1 0
vt 0 0
vt 0 1
vt 1 1
vt 1 0
vt 0 0
vt 0 1
vt 1 1
vt 1 0
vt 0 0
vt 0 1
vt 1 1
vt 1 0
vt 0 0
vn 0 0 1
vn 0 0 1
vn 0 0 1
vn 0 0 1
vn 0 0 -1
vn 0 0 -1
vn 0 0 -1
vn 0 0 -1
vn 0 1 0
vn 0 1 0
vn 0 1 0
vn 0 1 0
vn 0 -1 0
vn 0 -1 0
vn 0 -1 0
vn 0 -1 0
vn 1 0 0
vn 1 0 0
vn 1 0 0
vn 1 0 0
vn -1 0 0
vn -1 0 0
vn -1 0 0
vn -1 0 0
f 1/1/1 2/2/2 3/3/3
f 1/1/1 3/3/3 4/4/4
f 5/5/5 6/6/6 7/7/7
f 5/5/5 7/7/7 8/8/8
f 9/9/9 10/10/10 11/11/11
f 9/9/9 11/11/11 12/12/12
f 13/13/13 14/14/14 15/15/15
f 13/13/13 15/15/15 16/16/16
f 17/17/17 18/18/18 19/19/19
f 17/17/17 19/19/19 20/20/20
f 21/21/21 22/22/22 23/23/23
f 21/21/21 23/23/23 24/24/24
o boxB
g boxB
usemtl blue
v -1.0000001192092896 -1.0000001192092896 1.0000001192092896
v 1.0000001192092896 -1.0000001192092896 1.0000001192092896
v 1.0000001192092896 1.0000001192092896 1.0000001192092896
v -1.0000001192092896 1.0000001192092896 1.0000001192092896
v 1.0000001192092896 -1.0000001192092896 -1.0000001192092896
v -1.0000001192092896 -1.0000001192092896 -1.0000001192092896
v -1.0000001192092896 1.0000001192092896 -1.0000001192092896
v 1.0000001192092896 1.0000001192092896 -1.0000001192092896
v -1.0000001192092896 1.0000001192092896 1.0000001192092896
v 1.0000001192092896 1.0000001192092896 1.0000001192092896
v 1.0000001192092896 1.0000001192092896 -1.0000001192092896
v -1.0000001192092896 1.0000001192092896 -1.0000001192092896
v -1.0000001192092896 -1.0000001192092896 -1.0000001192092896
v 1.0000001192092896 -1.0000001192092896 -1.0000001192092896
v 1.0000001192092896 -1.0000001192092896 1.0000001192092896
v -1.0000001192092896 -1.0000001192092896 1.0000001192092896
v 1.0000001192092896 -1.0000001192092896 1.0000001192092896
v 1.0000001192092896 -1.0000001192092896 -1.0000001192092896
v 1.0000001192092896 1.0000001192092896 -1.0000001192092896
v 1.0000001192092896 1.0000001192092896 1.0000001192092896
v -1.0000001192092896 -1.0000001192092896 -1.0000001192092896
v -1.0000001192092896 -1.0000001192092896 1.0000001192092896
v -1.0000001192092896 1.0000001192092896 1.0000001192092896
v -1.0000001192092896 1.0000001192092896 -1.0000001192092896
vt 1 1
vt 0 1
vt 0 0
vt 1 0
vt 1 1
vt 0 1
vt 0 0
vt 1 0
vt 0 1
vt 1 1
vt 1 0
vt 0 0
vt 0 1
vt 1 1
vt 1 0
vt 0 0
vt 0 1
vt 1 1
vt 1 0
vt 0 0
vt 0 1
vt 1 1
vt 1 0
vt 0 0
vn 0 0 1
vn 0 0 1
vn 0 0 1
vn 0 0 1
vn 0 0 -1
vn 0 0 -1
vn 0 0 -1
vn 0 0 -1
vn 0 1 0
vn 0 1 0
vn 0 1 0
vn 0 1 0
vn 0 -1 0
vn 0 -1 0
vn 0 -1 0
vn 0 -1 0
vn 1 0 0
vn 1 0 0
vn 1 0 0
vn 1 0 0
vn -1 0 0
vn -1 0 0
vn -1 0 0
vn -1 0 0
f 25/25/25 26/26/26 27/27/27
f 25/25/25 27/27/27 28/28/28
f 29/29/29 30/30/30 31/31/31
f 29/29/29 31/31/31 32/32/32
f 33/33/33 34/34/34 35/35/35
f 33/33/33 35/35/35 36/36/36
f 37/37/37 38/38/38 39/39/39
f 37/37/37 39/39/39 40/40/40
f 41/41/41 42/42/42 43/43/43
f 41/41/41 43/43/43 44/44/44
f 45/45/45 46/46/46 47/47/47
f 45/45/45 47/47/47 48/48/48
o octa
g octa
usemtl green
v 5 1 0
v 5 0 1
v 6 0 0
v 5 0 -1
v 4 0 0
v 5 -1 0
v 5 0 1
v 5 0 -1
vt 0.5 0.5
vt 0.5 1
vt 1 0.5
vt 0.5 0
vt 0 0.5
vt 0.5 0.5
vt 0.5 0
vt 0.5 1
f 49/49 50/50 51/51
f 49/49 51/51 52/52
f 49/49 52/52 53/53
f 49/49 53/53 50/50
f 54/54 51/51 55/55
f 54/54 56/56 51/51
f 54/54 53/53 56/56
f 54/54 55/55 53/53
