ply
format ascii 1.0
comment created by meshify
element vertex 56
property float x
property float y
property float z
property uchar red
property uchar green
property uchar blue
element face 32
property list uchar int vertex_indices
end_header
-1 -1 1 204 26 26
1 -1 1 204 26 26
1 1 1 204 26 26
-1 1 1 204 26 26
1 -1 -1 204 26 26
-1 -1 -1 204 26 26
-1 1 -1 204 26 26
1 1 -1 204 26 26
-1 1 1 204 26 26
1 1 1 204 26 26
1 1 -1 204 26 26
-1 1 -1 204 26 26
-1 -1 -1 204 26 26
1 -1 -1 204 26 26
1 -1 1 204 26 26
-1 -1 1 204 26 26
1 -1 1 204 26 26
1 -1 -1 204 26 26
1 1 -1 204 26 26
1 1 1 204 26 26
-1 -1 -1 204 26 26
-1 -1 1 204 26 26
-1 1 1 204 26 26
-1 1 -1 204 26 26
-1 -1 1 26 51 204
1 -1 1 26 51 204
1 1 1 26 51 204
-1 1 1 26 51 204
1 -1 -1 26 51 204
-1 -1 -1 26 51 204
-1 1 -1 26 51 204
1 1 -1 26 51 204
-1 1 1 26 51 204
1 1 1 26 51 204
1 1 -1 26 51 204
-1 1 -1 26 51 204
-1 -1 -1 26 51 204
1 -1 -1 26 51 204
1 -1 1 26 51 204
-1 -1 1 26 51 204
1 -1 1 26 51 204
1 -1 -1 26 51 204
1 1 -1 26 51 204
1 1 1 26 51 204
-1 -1 -1 26 51 204
-1 -1 1 26 51 204
-1 1 1 26 51 204
-1 1 -1 26 51 204
5 1 0 26 179 51
5 0 1 26 179 51
6 0 0 26 179 51
5 0 -1 26 179 51
4 0 0 26 179 51
5 -1 0 26 179 51
5 0 1 26 179 51
5 0 -1 26 179 51
3 0 1 2
3 0 2 3
3 4 5 6
3 4 6 7
3 8 9 10
3 8 10 11
3 12 13 14
3 12 14 15
3 16 17 18
3 16 18 19
3 20 21 22
3 20 22 23
3 24 25 26
3 24 26 27
3 28 29 30
3 28 30 31
3 32 33 34
3 32 34 35
3 36 37 38
3 36 38 39
3 40 41 42
3 40 42 43
3 44 45 46
3 44 46 47
3 48 49 50
3 48 50 51
3 48 51 52
3 48 52 49
3 53 50 54
3 53 55 50
3 53 52 55
3 53 54 52
